<svg id="logo-large" width="34" height="32" xmlns="http://www.w3.org/2000/svg" xmlns:xlink="http://www.w3.org/1999/xlink" x="0px" y="0px" viewBox="0 0 60 55" xml:space="preserve" class="navigation_logo__28y6I"><g><path d="M29.8,42.2c-1.4,0-2.5-1.1-2.5-2.5V26.6L15.9,20c-1.2-0.7-1.6-2.2-0.9-3.4c0.7-1.2,2.2-1.6,3.4-0.9l11.4,6.6 l11.4-6.6c1.2-0.7,2.7-0.3,3.4,0.9s0.3,2.7-0.9,3.4l0,0l-11.4,6.6v13.1C32.2,41.1,31.1,42.2,29.8,42.2" style="fill: rgb(41, 48, 112);"></path><path d="M48.7,31.4c-0.9,0-1.7-0.4-2.1-1.2c-0.7-1.2-0.3-2.7,0.9-3.4c2.4-1.4,4.2-3.7,4.9-6.4c0.7-2.7,0.4-5.6-1.1-8 c-2.9-5-9.4-6.8-14.4-3.9c-1.2,0.7-2.7,0.3-3.4-0.9c-0.7-1.2-0.3-2.7,0.9-3.4C41.8,0,51.3,2.6,55.6,9.9c2.1,3.6,2.6,7.7,1.5,11.7 c-1.1,4-3.6,7.3-7.2,9.4C49.5,31.3,49.1,31.4,48.7,31.4" style="fill: rgb(255, 64, 64);"></path><path d="M29.8,54.8c-8.5,0-15.5-6.9-15.5-15.5c0-1.4,1.1-2.5,2.5-2.5s2.5,1.1,2.5,2.5c0,5.8,4.7,10.5,10.5,10.5 s10.5-4.7,10.5-10.5c0-1.4,1.1-2.5,2.5-2.5c1.4,0,2.5,1.1,2.5,2.5C45.2,47.9,38.3,54.8,29.8,54.8" style="fill: rgb(255, 195, 0);"></path><path d="M10.9,31.4c-0.4,0-0.8-0.1-1.2-0.3c-3.6-2.1-6.1-5.4-7.2-9.4C1.4,17.7,1.9,13.5,4,10c2.1-3.6,5.4-6.1,9.4-7.2 c4-1.1,8.2-0.5,11.7,1.5C26.3,5,26.7,6.5,26,7.7s-2.2,1.6-3.4,0.9c-2.4-1.4-5.3-1.8-8-1.1c-2.7,0.7-5,2.5-6.4,4.9s-1.8,5.3-1.1,8 s2.5,5,4.9,6.4c1.2,0.7,1.6,2.2,0.9,3.4C12.6,31,11.7,31.4,10.9,31.4" style="fill: rgb(0, 105, 255);"></path></g></svg>